<svg width="48" height="48" viewBox="0 0 48 48" fill="none" xmlns="http://www.w3.org/2000/svg">
<path d="M42 0H6C4.4087 0 2.88258 0.632141 1.75736 1.75736C0.632141 2.88258 0 4.4087 0 6L0 48H48V6C48 4.4087 47.3679 2.88258 46.2426 1.75736C45.1174 0.632141 43.5913 0 42 0V0ZM14 44V34C14 33.4696 14.2107 32.9609 14.5858 32.5858C14.9609 32.2107 15.4696 32 16 32H32C32.5304 32 33.0391 32.2107 33.4142 32.5858C33.7893 32.9609 34 33.4696 34 34V44H14ZM44 44H38V34C38 32.4087 37.3679 30.8826 36.2426 29.7574C35.1174 28.6321 33.5913 28 32 28H16C14.4087 28 12.8826 28.6321 11.7574 29.7574C10.6321 30.8826 10 32.4087 10 34V44H4V6C4 5.46957 4.21071 4.96086 4.58579 4.58579C4.96086 4.21071 5.46957 4 6 4H42C42.5304 4 43.0391 4.21071 43.4142 4.58579C43.7893 4.96086 44 5.46957 44 6V44Z" fill="black"/>
<path d="M24 8C22.4178 8 20.871 8.46919 19.5554 9.34824C18.2399 10.2273 17.2145 11.4767 16.609 12.9385C16.0035 14.4003 15.845 16.0089 16.1537 17.5607C16.4624 19.1126 17.2243 20.538 18.3431 21.6569C19.462 22.7757 20.8874 23.5376 22.4393 23.8463C23.9911 24.155 25.5997 23.9965 27.0615 23.391C28.5233 22.7855 29.7727 21.7602 30.6518 20.4446C31.5308 19.129 32 17.5823 32 16C32 13.8783 31.1572 11.8434 29.6569 10.3431C28.1566 8.84285 26.1217 8 24 8ZM24 20C23.2089 20 22.4355 19.7654 21.7777 19.3259C21.1199 18.8864 20.6072 18.2616 20.3045 17.5307C20.0017 16.7998 19.9225 15.9956 20.0769 15.2196C20.2312 14.4437 20.6122 13.731 21.1716 13.1716C21.731 12.6122 22.4437 12.2312 23.2196 12.0769C23.9956 11.9225 24.7998 12.0017 25.5307 12.3045C26.2616 12.6072 26.8864 13.1199 27.3259 13.7777C27.7654 14.4355 28 15.2089 28 16C28 17.0609 27.5786 18.0783 26.8284 18.8284C26.0783 19.5786 25.0609 20 24 20Z" fill="black"/>
</svg>
