<svg width="48" height="48" viewBox="0 0 48 48" fill="none" xmlns="http://www.w3.org/2000/svg">
<path d="M38 8H35.8C35.3358 5.74283 34.1076 3.71469 32.3225 2.25744C30.5374 0.80018 28.3044 0.00290905 26 0L22 0C19.6956 0.00290905 17.4626 0.80018 15.6775 2.25744C13.8924 3.71469 12.6642 5.74283 12.2 8H10C7.34881 8.00318 4.80712 9.05776 2.93244 10.9324C1.05776 12.8071 0.00317572 15.3488 0 18L0 38C0.00317572 40.6512 1.05776 43.1929 2.93244 45.0676C4.80712 46.9422 7.34881 47.9968 10 48H38C40.6512 47.9968 43.1929 46.9422 45.0676 45.0676C46.9422 43.1929 47.9968 40.6512 48 38V18C47.9968 15.3488 46.9422 12.8071 45.0676 10.9324C43.1929 9.05776 40.6512 8.00318 38 8ZM22 4H26C27.2365 4.00513 28.4413 4.39217 29.4494 5.10818C30.4575 5.82418 31.2198 6.83418 31.632 8H16.368C16.7802 6.83418 17.5425 5.82418 18.5506 5.10818C19.5587 4.39217 20.7635 4.00513 22 4ZM10 12H38C39.5913 12 41.1174 12.6321 42.2426 13.7574C43.3679 14.8826 44 16.4087 44 18V24H4V18C4 16.4087 4.63214 14.8826 5.75736 13.7574C6.88258 12.6321 8.4087 12 10 12ZM38 44H10C8.4087 44 6.88258 43.3679 5.75736 42.2426C4.63214 41.1174 4 39.5913 4 38V28H22V30C22 30.5304 22.2107 31.0391 22.5858 31.4142C22.9609 31.7893 23.4696 32 24 32C24.5304 32 25.0391 31.7893 25.4142 31.4142C25.7893 31.0391 26 30.5304 26 30V28H44V38C44 39.5913 43.3679 41.1174 42.2426 42.2426C41.1174 43.3679 39.5913 44 38 44Z" fill="white"/>
</svg>
