<svg width="48" height="48" viewBox="0 0 48 48" fill="none" xmlns="http://www.w3.org/2000/svg">
<path d="M48 32V48H32C26.09 48 20.93 44.77 18.16 39.992C19.698 39.98 21.196 39.81 22.644 39.496C24.846 42.238 28.218 44 32 44H44V32C44 28.218 42.238 24.846 39.496 22.644C39.808 21.196 39.98 19.698 39.992 18.16C44.77 20.93 48 26.09 48 32ZM24.124 34.904C22.21 35.6 20.154 36 18 36H0V18C0 8.074 8.074 0 18 0C27.926 0 36 8.074 36 18C36 24.264 32.78 29.784 27.914 33.008L30.978 35.978L38.602 28.57L41.398 31.43L33.812 38.844C33.042 39.614 32.024 40 31.006 40C29.98 40 28.954 39.61 28.172 38.828L24.124 34.904ZM18 32C25.718 32 32 25.718 32 18C32 10.282 25.718 4 18 4C10.282 4 4 10.282 4 18V32H18ZM19.072 8.096C17.3 7.774 15.506 8.258 14.144 9.402C12.78 10.546 12 12.222 12 14H16C16 13.406 16.262 12.848 16.716 12.466C17.174 12.078 17.76 11.92 18.38 12.034C19.162 12.17 19.828 12.836 19.966 13.622C20.152 14.682 19.54 15.432 18.962 15.752C17.272 16.682 16 18.942 16 21.008V21.998H20V21.008C20 20.384 20.52 19.462 20.894 19.256C23.144 18.014 24.352 15.47 23.906 12.93C23.482 10.506 21.492 8.516 19.072 8.094V8.096ZM16 28H20V24H16V28Z" fill="black"/>
</svg>
