<svg width="638" height="638" viewBox="0 0 638 638" fill="none" xmlns="http://www.w3.org/2000/svg">
<path d="M264.051 531.568H601.925C601.925 531.568 574.233 583.379 419.375 579.561C264.517 575.742 280.407 551.334 280.407 551.334C280.407 551.334 215.286 550.496 206.562 543.391C197.837 536.285 135.059 553.746 103.196 545.334C71.3333 536.922 103.196 531.79 103.196 531.79L264.051 531.568Z" fill="white" stroke="#1A1A1A" stroke-width="4.198" stroke-linecap="round" stroke-linejoin="round"/>
<path d="M58.4858 531.79H602.894C630.266 470.574 596.676 408.318 555.244 397.651C517.719 387.991 464.816 418.342 450.412 475.679C443.561 469.108 424.963 453.123 397.401 450.663C363.292 447.618 329.219 466.515 309.247 498.909C303.662 493.584 246.189 440.657 166.295 456.023C97.6274 469.23 63.813 522.998 58.4858 531.79Z" fill="white" stroke="#1A1A1A" stroke-width="4.198" stroke-linecap="round" stroke-linejoin="round"/>
<path d="M583.607 378.458C592.042 378.458 598.88 371.619 598.88 363.184C598.88 354.749 592.042 347.91 583.607 347.91C575.171 347.91 568.333 354.749 568.333 363.184C568.333 371.619 575.171 378.458 583.607 378.458Z" fill="white" stroke="#1A1A1A" stroke-width="4.198" stroke-linecap="round" stroke-linejoin="round"/>
<path d="M530.648 86.8286C530.648 83.074 529.909 79.3562 528.472 75.8875C527.035 72.4187 524.929 69.267 522.274 66.6121C519.619 63.9572 516.468 61.8513 512.999 60.4145C509.53 58.9777 505.812 58.2382 502.058 58.2382H159.767C156.013 58.2382 152.295 58.9777 148.826 60.4145C145.358 61.8513 142.206 63.9572 139.551 66.6121C136.896 69.267 134.79 72.4187 133.353 75.8875C131.917 79.3562 131.177 83.074 131.177 86.8286V88.4169H530.648V86.8286Z" fill="#1C0311" stroke="#1A1A1A" stroke-width="2.099" stroke-linecap="round" stroke-linejoin="round"/>
<path d="M131.177 88.4169V287.755C131.177 291.51 131.917 295.228 133.353 298.696C134.79 302.165 136.896 305.317 139.551 307.972C142.206 310.627 145.358 312.733 148.826 314.169C152.295 315.606 156.013 316.346 159.767 316.346H502.058C505.812 316.346 509.53 315.606 512.999 314.169C516.468 312.733 519.619 310.627 522.274 307.972C524.929 305.317 527.035 302.165 528.472 298.696C529.909 295.228 530.648 291.51 530.648 287.755V88.4169H131.177Z" fill="white" stroke="#1A1A1A" stroke-width="4.198" stroke-linecap="round" stroke-linejoin="round"/>
<path d="M572.821 149.628H512.829C511.267 149.628 510 150.895 510 152.458V176.977C510 178.54 511.267 179.807 512.829 179.807H572.821C574.384 179.807 575.651 178.54 575.651 176.977V152.458C575.651 150.895 574.384 149.628 572.821 149.628Z" fill="white" stroke="#1A1A1A" stroke-width="4.198" stroke-linecap="round" stroke-linejoin="round"/>
<path d="M572.821 188.481H512.829C511.267 188.481 510 189.748 510 191.31V215.829C510 217.392 511.267 218.659 512.829 218.659H572.821C574.384 218.659 575.651 217.392 575.651 215.829V191.31C575.651 189.748 574.384 188.481 572.821 188.481Z" fill="#1C0311" stroke="#1A1A1A" stroke-width="2.099" stroke-linecap="round" stroke-linejoin="round"/>
<path d="M381.872 181.733C381.872 181.733 379.1 182.572 377.571 182.13L381.872 181.733Z" fill="white"/>
<path d="M381.872 181.733C381.872 181.733 379.1 182.572 377.571 182.13" stroke="#1A1A1A" stroke-width="4.198" stroke-linecap="round" stroke-linejoin="round"/>
<path d="M162.944 191.263C162.944 191.263 163.19 192.174 163.727 193.823" stroke="#1A1A1A" stroke-width="4.198" stroke-linecap="round" stroke-linejoin="round"/>
<path d="M165.513 198.891C172.91 218.523 197.648 270.436 257.054 287.358C306.152 301.344 335.702 296.706 346.855 293.765" stroke="#1A1A1A" stroke-width="4.198" stroke-linecap="round" stroke-linejoin="round" stroke-dasharray="25.27 25.27"/>
<path d="M349.437 293.021C351.122 292.49 351.958 292.123 351.958 292.123" stroke="#1A1A1A" stroke-width="4.198" stroke-linecap="round" stroke-linejoin="round"/>
<path d="M177.239 88.4168V91.0951" stroke="#1A1A1A" stroke-width="4.198" stroke-linecap="round" stroke-linejoin="round"/>
<path d="M177.239 96.5237V310.953" stroke="#1A1A1A" stroke-width="4.198" stroke-linecap="round" stroke-linejoin="round" stroke-dasharray="25.53 25.53"/>
<path d="M177.239 313.668V316.346" stroke="#1A1A1A" stroke-width="4.198" stroke-linecap="round" stroke-linejoin="round"/>
<path d="M131.177 112.838H133.855" stroke="#1A1A1A" stroke-width="4.198" stroke-linecap="round" stroke-linejoin="round"/>
<path d="M139.254 112.838H525.27" stroke="#1A1A1A" stroke-width="4.198" stroke-linecap="round" stroke-linejoin="round" stroke-dasharray="25.39 25.39"/>
<path d="M527.97 112.838H530.648" stroke="#1A1A1A" stroke-width="4.198" stroke-linecap="round" stroke-linejoin="round"/>
<path d="M112.332 306.464L124.265 322L151.586 301.014L140.06 285.165L112.332 306.464Z" fill="white"/>
<path d="M172.062 302.312L200.811 280.229L199.748 255.345L180.643 270.02C181.241 271.844 181.18 273.82 180.472 275.604C179.764 277.388 178.453 278.868 176.767 279.785C175.081 280.703 173.127 281 171.244 280.626C169.362 280.251 167.67 279.229 166.463 277.736C165.256 276.244 164.611 274.375 164.639 272.456C164.668 270.537 165.368 268.688 166.618 267.232C167.869 265.775 169.59 264.803 171.483 264.485C173.376 264.166 175.32 264.521 176.978 265.488L196.199 250.724L172.43 243.281L143.681 265.364L141.2 284.29L140.06 285.165L151.586 301.014L153.133 299.826L172.062 302.312Z" fill="white"/>
<path d="M112.331 306.464L101.098 315.093L113.032 330.629L124.265 322L112.331 306.464Z" fill="white"/>
<path d="M101.098 315.093L69.0315 339.724L80.9654 355.261L113.032 330.629L101.098 315.093Z" fill="white"/>
<path d="M112.332 306.464L124.265 322L151.586 301.014L140.06 285.165L112.332 306.464Z" stroke="white" stroke-width="2.099" stroke-miterlimit="10"/>
<path d="M172.062 302.312L200.811 280.229L199.748 255.345L180.643 270.02C181.241 271.844 181.18 273.82 180.472 275.604C179.764 277.388 178.453 278.868 176.767 279.785C175.081 280.703 173.127 281 171.244 280.626C169.362 280.251 167.67 279.229 166.463 277.736C165.256 276.244 164.611 274.375 164.639 272.456C164.668 270.537 165.368 268.688 166.618 267.232C167.869 265.775 169.59 264.803 171.483 264.485C173.376 264.166 175.32 264.521 176.978 265.488L196.199 250.724L172.43 243.281L143.681 265.364L141.2 284.29L140.06 285.165L151.586 301.014L153.133 299.826L172.062 302.312Z" stroke="white" stroke-width="2.099" stroke-miterlimit="10"/>
<path d="M112.331 306.464L101.098 315.093L113.032 330.629L124.265 322L112.331 306.464Z" fill="#1C0311" stroke="#1A1A1A" stroke-width="2.099" stroke-linecap="round" stroke-linejoin="round"/>
<path d="M101.098 315.093L69.0315 339.724L80.9654 355.261L113.032 330.629L101.098 315.093Z" stroke="white" stroke-width="2.099" stroke-miterlimit="10"/>
<path d="M112.332 306.464L124.265 322L151.586 301.014L140.06 285.165L112.332 306.464Z" stroke="#1A1A1A" stroke-width="4.198" stroke-linecap="round" stroke-linejoin="round"/>
<path d="M172.062 302.312L200.811 280.229L199.748 255.345L180.643 270.02C181.241 271.844 181.18 273.82 180.472 275.604C179.764 277.388 178.453 278.868 176.767 279.785C175.081 280.703 173.127 281 171.244 280.626C169.362 280.251 167.67 279.229 166.463 277.736C165.256 276.244 164.611 274.375 164.639 272.456C164.668 270.537 165.368 268.688 166.618 267.232C167.869 265.775 169.59 264.803 171.483 264.485C173.376 264.166 175.32 264.521 176.978 265.488L196.199 250.724L172.43 243.281L143.681 265.364L141.2 284.29L140.06 285.165L151.586 301.014L153.133 299.826L172.062 302.312Z" stroke="#1A1A1A" stroke-width="4.198" stroke-linecap="round" stroke-linejoin="round"/>
<path d="M112.331 306.464L101.098 315.093L113.032 330.629L124.265 322L112.331 306.464Z" stroke="#1A1A1A" stroke-width="4.198" stroke-linecap="round" stroke-linejoin="round"/>
<path d="M101.098 315.093L69.0315 339.724L80.9654 355.261L113.032 330.629L101.098 315.093Z" stroke="#1A1A1A" stroke-width="4.198" stroke-linecap="round" stroke-linejoin="round"/>
<path d="M115.691 155.326V143.016H102.991C102.495 141.217 101.778 139.487 100.858 137.864L109.837 128.884L101.131 120.178L92.1513 129.157C90.5281 128.237 88.7975 127.52 86.9988 127.024V114.329H74.694V127.024C72.8953 127.52 71.1647 128.237 69.5415 129.157L60.5623 120.178L51.8559 128.884L60.8352 137.864C59.9148 139.487 59.1983 141.217 58.7018 143.016H46.0016V155.326H58.7018C59.1983 157.125 59.9148 158.856 60.8352 160.479L51.8559 169.458L60.5623 178.165L69.5415 169.185C71.1647 170.106 72.8953 170.822 74.694 171.319V184.013H86.9988V171.319C88.7975 170.822 90.5281 170.106 92.1513 169.185L101.131 178.165L109.837 169.458L100.858 160.479C101.778 158.856 102.495 157.125 102.991 155.326H115.691ZM91.5051 155.326C90.4245 157.198 88.8703 158.752 86.9988 159.833C86.0687 160.374 85.0701 160.788 84.0298 161.064C81.9422 161.621 79.745 161.621 77.6574 161.064C76.6189 160.788 75.6221 160.374 74.694 159.833C71.8685 158.196 69.8042 155.509 68.9511 152.357C68.6771 151.318 68.5385 150.247 68.5389 149.171C68.5376 148.095 68.6781 147.024 68.9567 145.985C69.2322 144.945 69.6462 143.946 70.1877 143.016C71.2699 141.146 72.8237 139.592 74.694 138.51C75.6221 137.968 76.6189 137.554 77.6574 137.279C79.745 136.722 81.9422 136.722 84.0298 137.279C85.0701 137.554 86.0687 137.968 86.9988 138.51C88.8691 139.592 90.4229 141.146 91.5051 143.016C92.0466 143.946 92.4606 144.945 92.7361 145.985C93.0147 147.024 93.1552 148.095 93.1539 149.171C93.1543 150.247 93.0157 151.318 92.7417 152.357C92.4619 153.397 92.0461 154.395 91.5051 155.326Z" fill="white" stroke="#1A1A1A" stroke-width="4.198" stroke-linecap="round" stroke-linejoin="round"/>
<path d="M177.769 81.1368C182.082 81.1368 185.578 77.6404 185.578 73.3275C185.578 69.0145 182.082 65.5181 177.769 65.5181C173.456 65.5181 169.96 69.0145 169.96 73.3275C169.96 77.6404 173.456 81.1368 177.769 81.1368Z" fill="white" stroke="#1A1A1A" stroke-width="4.198" stroke-linecap="round" stroke-linejoin="round"/>
<path d="M260.208 68.8272H199.499C198.536 68.8272 197.756 69.6078 197.756 70.5707V77.4081C197.756 78.371 198.536 79.1515 199.499 79.1515H260.208C261.171 79.1515 261.952 78.371 261.952 77.4081V70.5707C261.952 69.6078 261.171 68.8272 260.208 68.8272Z" fill="white" stroke="#1A1A1A" stroke-width="4.198" stroke-linecap="round" stroke-linejoin="round"/>
<path d="M193.917 115.783V161.943C193.917 164.348 194.873 166.654 196.573 168.355C198.274 170.056 200.581 171.011 202.986 171.011H425.484C427.889 171.011 430.196 170.056 431.897 168.355C433.597 166.654 434.553 164.348 434.553 161.943V115.783H193.917Z" fill="white" stroke="#1A1A1A" stroke-width="4.198" stroke-linecap="round" stroke-linejoin="round"/>
<path d="M434.553 111.781C434.553 110.59 434.318 109.411 433.862 108.31C433.407 107.21 432.739 106.21 431.897 105.368C431.054 104.526 430.055 103.858 428.955 103.402C427.854 102.947 426.675 102.712 425.484 102.712H202.986C201.795 102.712 200.616 102.947 199.515 103.402C198.415 103.858 197.415 104.526 196.573 105.368C195.731 106.21 195.063 107.21 194.607 108.31C194.152 109.411 193.917 110.59 193.917 111.781V115.783H434.553V111.781Z" fill="#1C0311" stroke="#1A1A1A" stroke-width="2.099" stroke-linecap="round" stroke-linejoin="round"/>
<path d="M430.232 185.546H198.238C195.852 185.546 193.917 187.48 193.917 189.867V221.489C193.917 223.875 195.852 225.809 198.238 225.809H430.232C432.618 225.809 434.553 223.875 434.553 221.489V189.867C434.553 187.48 432.618 185.546 430.232 185.546Z" fill="white" stroke="#1A1A1A" stroke-width="4.198" stroke-linecap="round" stroke-linejoin="round"/>
<path d="M289.709 448.192C284.034 442.9 277.777 436.249 279.107 428.604C280.11 422.834 285.138 418.798 288.69 414.142C293.601 407.705 295.894 399.133 294.039 391.252C292.185 383.37 285.918 376.489 278.031 374.657C270.144 372.826 261.083 376.623 257.496 383.881C254.685 389.57 255.323 396.258 254.743 402.577C254.164 408.896 251.458 415.988 245.4 417.876C240.34 419.452 234.983 416.745 230.668 413.668C226.353 410.591 222.07 406.92 216.814 406.246C210.645 405.454 204.475 409.285 201.351 414.663C198.227 420.04 197.792 426.647 198.888 432.768C199.983 438.89 202.491 444.656 204.978 450.356L188.623 469.092L183.255 531.568H239.45C245.244 528.952 250.654 525.515 256.023 522.09C260.46 519.26 264.897 516.43 269.333 513.6C272.336 511.685 275.666 509.239 275.866 505.683C276.271 498.472 263.989 495.684 264.191 488.464C264.273 485.522 266.65 483.05 269.359 481.898C272.068 480.746 275.085 480.635 278.023 480.447C282.525 480.16 287.108 479.628 291.199 477.728C295.291 475.827 298.867 472.339 299.838 467.933C301.508 460.355 295.385 453.483 289.709 448.192Z" fill="#1C0311" stroke="#1A1A1A" stroke-width="2.099" stroke-linecap="round" stroke-linejoin="round"/>
<path d="M265.923 413.259C265.923 413.259 259.98 447.807 241.508 464.803C223.037 481.799 219.86 504.566 220.654 514.625C221.449 524.685 212.183 531.568 212.183 531.568M244.48 499.801C244.48 499.801 227.902 494.099 221.102 504.097M223.037 455.824C223.037 455.824 230.877 459.63 230.398 478.259M267.776 447.65C267.776 447.65 262.18 455.814 248.168 457.291" stroke="white" stroke-width="6.297" stroke-linecap="round" stroke-linejoin="round"/>
<path d="M208.303 517.165C214.135 505.722 208.272 496.638 198.585 490.327C189.017 481.43 196.23 475.591 204.739 470.183C220.031 456.828 204.813 432.501 186.097 440.493C179.372 443.748 171.563 453.084 163.719 447.626C159.212 444.057 160.7 437.094 161.182 431.365C162.68 416.997 151.848 396.519 135.464 399.148C128.166 400.975 124.008 408.843 117.218 412.084C97.1581 420.796 81.5974 392.558 62.0422 394.396C24.131 402.896 36.1583 469.187 90.4568 461.001C94.7951 461.358 99.3334 462.999 101.758 466.614C109.64 478.979 89.4731 493.621 97.0094 506.042C103.579 515.484 116.623 510.611 126.164 510.414C139.552 510.002 144.894 521.691 137.49 531.568H189.496C197.293 528.919 204.328 524.667 208.303 517.165Z" fill="white" stroke="#1A1A1A" stroke-width="4.198" stroke-linecap="round" stroke-linejoin="round"/>
<path d="M155.201 531.568L159.37 523.626C177.636 460.489 81.9381 427.531 81.9381 427.531M168.106 473.99C168.106 473.99 170.3 488.078 160.401 496.322L168.106 473.99ZM127.736 427.531C128 428.192 135.768 441.218 129.436 453.368L127.736 427.531ZM128.662 472.668C128.662 472.668 145.395 470.731 151.456 476.133L128.662 472.668ZM86.1738 437.325C86.1738 437.325 95.2925 440.248 103.506 437.066L86.1738 437.325Z" fill="white"/>
<path d="M155.201 531.568L159.37 523.626C177.636 460.489 81.9381 427.531 81.9381 427.531M168.106 473.99C168.106 473.99 170.3 488.078 160.401 496.322M127.736 427.531C128 428.192 135.768 441.218 129.436 453.368M128.662 472.668C128.662 472.668 145.395 470.731 151.456 476.133M86.1738 437.325C86.1738 437.325 95.2925 440.248 103.506 437.066" stroke="#1A1A1A" stroke-width="4.198" stroke-linecap="round" stroke-linejoin="round"/>
<path d="M14.036 531.616H623.964" stroke="#1A1A1A" stroke-width="6.297" stroke-linecap="round" stroke-linejoin="round"/>
<path d="M230.449 282.641L234.891 272.85L243.481 276.993L239.284 286.63L230.449 282.641Z" fill="#1C0311" stroke="#1A1A1A" stroke-width="2.099" stroke-linecap="round" stroke-linejoin="round"/>
<path d="M363.609 543.844C362.882 541.475 362.008 538.739 361.786 538.517C361.389 538.12 349.179 538.517 349.179 538.517C349.179 538.517 347.281 539.434 344.45 540.855C349.14 546.41 356.468 546.022 363.609 543.844Z" fill="#1C0311" stroke="#1A1A1A" stroke-width="2.099" stroke-linecap="round" stroke-linejoin="round"/>
<path d="M365.59 554.235C365.759 552.62 365.506 550.424 364.665 547.352C364.665 547.352 364.183 545.712 363.609 543.844C356.468 546.022 349.14 546.41 344.45 540.855C336.582 544.805 321.5 552.645 319.893 555.492C318.899 557.254 318.381 559.468 318.717 561.349C334.377 562.76 351.453 561.114 365.59 554.235Z" fill="white" stroke="#1A1A1A" stroke-width="4.198" stroke-linecap="round" stroke-linejoin="round"/>
<path d="M318.717 561.349C319.119 563.6 320.746 565.374 324.261 565.32C330.714 565.221 354.344 561.454 359.106 559.761C362.269 558.636 365.18 558.154 365.59 554.235C351.453 561.114 334.377 562.76 318.717 561.349Z" fill="white" stroke="#1A1A1A" stroke-width="4.198" stroke-linecap="round" stroke-linejoin="round"/>
<path d="M530.917 527.56C527.845 524.409 525.089 522.038 525.089 522.038L509.007 529.88C509.007 529.88 506.655 532.11 503.54 535.077C513.479 537.485 524.908 535.063 530.917 527.56Z" fill="#1C0311" stroke="#1A1A1A" stroke-width="2.099" stroke-linecap="round" stroke-linejoin="round"/>
<path d="M500.671 555.152C495.921 556.509 490.656 557.088 485.659 556.114C485.825 556.696 486.064 557.255 486.373 557.775C488.259 561.051 500.767 558.272 513.276 553.904C524.837 549.867 538.941 544.557 538.816 538.838C528.943 549.143 513.393 550.381 500.671 555.152Z" fill="white" stroke="#1A1A1A" stroke-width="4.198" stroke-linecap="round" stroke-linejoin="round"/>
<path d="M530.917 527.56C524.908 535.063 513.479 537.485 503.54 535.077C498.208 540.155 490.635 547.395 488.755 549.337C486.312 551.862 485.008 553.72 485.659 556.114C490.656 557.088 495.921 556.509 500.671 555.152C513.393 550.381 528.943 549.143 538.816 538.838C538.803 538.35 538.692 537.869 538.491 537.425C537.127 534.356 533.875 530.596 530.917 527.56Z" fill="white" stroke="#1A1A1A" stroke-width="4.198" stroke-linecap="round" stroke-linejoin="round"/>
<path d="M441.436 382.527C446.465 431.237 503.646 529.582 504.837 530.774C506.029 531.965 523.501 533.156 526.28 524.817C529.06 516.478 510.397 453.738 503.646 432.296C508.411 409.662 510 347.319 497.69 322.623C485.38 297.927 466.717 294.903 466.717 294.903L434.553 305.624" fill="white"/>
<path d="M441.436 382.527C446.465 431.237 503.646 529.582 504.837 530.774C506.029 531.965 523.501 533.156 526.28 524.817C529.06 516.478 510.397 453.738 503.646 432.296C508.411 409.662 510 347.319 497.69 322.623C485.38 297.927 466.717 294.903 466.717 294.903L434.553 305.624" stroke="#1A1A1A" stroke-width="4.198" stroke-linecap="round" stroke-linejoin="round"/>
<path d="M469.718 332.031C469.718 332.031 477.438 347.319 461.952 372.732C443.086 403.692 390.608 416.147 375.916 420.912C380.018 454.268 368.371 530.244 362.283 541.892C355.929 546.128 346.399 540.039 346.399 540.039C346.399 540.039 329.457 453.474 337.398 407.147C345.34 360.82 416.551 319.258 416.551 319.258L450.833 305.624" fill="white"/>
<path d="M469.718 332.031C469.718 332.031 477.438 347.319 461.952 372.732C443.086 403.692 390.608 416.147 375.916 420.912C380.018 454.268 368.371 530.244 362.283 541.892C355.929 546.128 346.399 540.039 346.399 540.039C346.399 540.039 329.457 453.474 337.398 407.147C345.34 360.82 416.551 319.258 416.551 319.258L450.833 305.624" stroke="#1A1A1A" stroke-width="4.198" stroke-linecap="round" stroke-linejoin="round"/>
<path d="M409.874 323.433C409.874 323.433 429.897 328.182 441.83 323.886C453.762 319.591 467.695 313.386 469.718 302.408L469.677 296.988L413.987 319.113L409.874 323.433Z" fill="#1C0311" stroke="#1A1A1A" stroke-width="2.099" stroke-linecap="round" stroke-linejoin="round"/>
<path d="M398.219 200.396C398.219 200.396 391.667 186.101 392.66 179.549C393.653 172.997 407.948 165.651 392.858 152.348C377.769 139.046 367.445 154.135 366.452 160.886C365.459 167.636 365.459 179.152 377.571 182.13L377.173 204.367" fill="white"/>
<path d="M398.219 200.396C398.219 200.396 391.667 186.101 392.66 179.549C393.653 172.997 407.948 165.651 392.858 152.348C377.769 139.046 367.445 154.135 366.452 160.886C365.459 167.636 365.459 179.152 377.571 182.13L377.173 204.367" stroke="#1A1A1A" stroke-width="4.198" stroke-linecap="round" stroke-linejoin="round"/>
<path d="M382.114 181.226L377.571 182.13L377.535 184.144L382.114 181.226Z" fill="#1C0311" stroke="#1A1A1A" stroke-width="2.099" stroke-linecap="round" stroke-linejoin="round"/>
<path d="M452.124 127.729C452.124 127.729 443.189 115.915 432.468 115.32C421.747 114.724 419.761 119.787 422.243 122.765C424.725 125.743 430.979 126.736 432.369 126.736C433.759 126.736 428.199 129.615 428.696 130.806C429.192 131.997 433.858 131.302 436.24 130.409C438.623 129.516 443.289 129.218 444.48 131.005C445.671 132.792 452.124 127.729 452.124 127.729Z" fill="white" stroke="#1A1A1A" stroke-width="4.198" stroke-linecap="round" stroke-linejoin="round"/>
<path d="M401.396 201.389C401.396 201.389 438.127 206.154 447.657 190.072C457.187 173.989 452.939 145.231 442.892 133.288C440.544 130.887 443.09 128.324 446.068 127.133C449.047 125.942 452.223 123.758 456.988 130.508C461.753 137.259 481.211 170.019 477.349 200.594C473.801 228.68 460.959 243.083 442.892 245.267C423.831 226.604 401.396 201.389 401.396 201.389Z" fill="#54CAFA" stroke="#1A1A1A" stroke-width="4.198" stroke-linecap="round" stroke-linejoin="round"/>
<path d="M255.069 181.633C255.069 181.633 243.752 167.537 243.355 161.779C242.958 156.021 244.149 153.043 247.723 152.15C251.296 151.256 252.686 156.815 255.466 158.007C258.245 159.198 262.117 154.731 262.713 158.404C263.308 162.077 258.345 169.522 258.742 173.592C259.139 177.663 260.827 178.854 260.827 178.854L255.069 181.633Z" fill="white" stroke="#1A1A1A" stroke-width="4.198" stroke-linecap="round" stroke-linejoin="round"/>
<path d="M384.917 247.649C298.947 263.93 253.459 183.482 252.592 181.664C251.725 179.845 257.543 174.353 260.363 175.776C263.183 177.2 318.206 206.154 362.283 203.771C375.189 202.984 376.479 202.878 381.144 200.991C385.81 199.105 399.013 195.829 402.686 198.708C406.359 201.587 421.052 210.124 440.509 234.744C459.966 259.363 471.482 293.712 469.497 299.867C467.511 306.021 451.23 324.287 417.875 322.501C393.851 320.515 353.969 278.517 345.233 248.338" fill="#54CAFA"/>
<path d="M384.917 247.649C298.947 263.93 253.459 183.482 252.592 181.664C251.725 179.845 257.543 174.353 260.363 175.776C263.183 177.2 318.206 206.154 362.283 203.771C375.189 202.984 376.479 202.878 381.144 200.991C385.81 199.105 399.013 195.829 402.686 198.708C406.359 201.587 421.052 210.124 440.509 234.744C459.966 259.363 471.482 293.712 469.497 299.867C467.511 306.021 451.23 324.287 417.875 322.501C393.851 320.515 353.969 278.517 345.233 248.338" stroke="#1A1A1A" stroke-width="4.198" stroke-linecap="round" stroke-linejoin="round"/>
<path d="M366.959 148.69C365.884 139.598 376.599 134.092 384.39 137.424C395.681 140.676 396.475 155.842 406.944 159.823C409.708 160.674 412.739 160.295 415.496 161.168C424.446 164.112 424.927 176.472 418.533 182.364C410.561 190.631 392.676 192.547 388.778 179.302C387.245 175.072 382.876 170.179 389.795 168.588C396.601 165.43 394.102 157.742 386.533 160.381C382.865 160.237 379.384 158.306 375.975 157.056C371.77 155.941 367.449 153.469 366.959 148.69Z" fill="#1C0311" stroke="#1A1A1A" stroke-width="2.099" stroke-linecap="round" stroke-linejoin="round"/>
<path d="M565.526 237.185H518.75V252.016H565.526V237.185Z" fill="white" stroke="#1A1A1A" stroke-width="4.198" stroke-linecap="round" stroke-linejoin="round"/>
<path d="M546.911 258.346H518.75V269.223H546.911V258.346Z" fill="white" stroke="#1A1A1A" stroke-width="4.198" stroke-linecap="round" stroke-linejoin="round"/>
<path d="M514.666 235.435H510V270.862H514.666V235.435Z" fill="white" stroke="#1A1A1A" stroke-width="4.198" stroke-linecap="round" stroke-linejoin="round"/>
<path d="M106.576 217.541H40.5747V262.129H106.576V217.541Z" fill="white" stroke="#1A1A1A" stroke-width="4.198" stroke-linecap="round" stroke-linejoin="round"/>
<path d="M59.3738 247.161L69.2421 230.068L79.1105 247.161H59.3738Z" fill="white" stroke="#1A1A1A" stroke-width="4.198" stroke-linecap="round" stroke-linejoin="round"/>
<path d="M81.349 247.867C86.2001 247.867 90.1326 243.843 90.1326 238.879C90.1326 233.916 86.2001 229.892 81.349 229.892C76.498 229.892 72.5655 233.916 72.5655 238.879C72.5655 243.843 76.498 247.867 81.349 247.867Z" fill="#1C0311" stroke="#1A1A1A" stroke-width="2.099" stroke-linecap="round" stroke-linejoin="round"/>
<path d="M573.62 104.268C573.915 105.55 574.503 106.746 575.338 107.763C576.172 108.779 577.231 109.589 578.431 110.127L573.246 111.278L569.167 108.516L539.422 115.118L545.755 119.418L585.36 110.629L585.419 110.584C590.051 109.186 592.943 104.685 591.948 100.201C590.901 95.4858 585.947 92.5708 580.888 93.6935C575.825 94.8173 572.573 99.5533 573.62 104.268ZM589.813 100.675C590.616 104.296 588.122 107.931 584.239 108.793C580.356 109.654 576.554 107.417 575.75 103.795C574.948 100.179 577.447 96.5423 581.329 95.6806C585.212 94.819 589.01 97.0578 589.813 100.675Z" fill="white" stroke="#1A1A1A" stroke-width="4.198" stroke-linecap="round" stroke-linejoin="round"/>
<path d="M579.769 131.918C584.795 133.18 589.827 130.402 591.003 125.718C592.121 121.263 589.354 116.684 584.762 115.159L584.705 115.113L547.07 105.666L538.908 109.361L568.46 116.779L572.613 114.13L577.765 115.423C576.55 115.929 575.47 116.709 574.607 117.702C573.745 118.695 573.124 119.874 572.794 121.148C571.618 125.832 574.738 130.656 579.769 131.918ZM580.264 129.944C576.407 128.976 574.009 125.272 574.911 121.679C575.814 118.081 579.676 115.949 583.534 116.917C587.391 117.885 589.785 121.588 588.882 125.186C587.98 128.779 584.121 130.912 580.264 129.944Z" fill="white" stroke="#1A1A1A" stroke-width="4.198" stroke-linecap="round" stroke-linejoin="round"/>
<path d="M566.796 115.081C568.131 115.081 569.213 113.999 569.213 112.664C569.213 111.329 568.131 110.247 566.796 110.247C565.461 110.247 564.378 111.329 564.378 112.664C564.378 113.999 565.461 115.081 566.796 115.081Z" fill="white" stroke="#1A1A1A" stroke-width="4.198" stroke-linecap="round" stroke-linejoin="round"/>
</svg>
