<svg width="48" height="48" viewBox="0 0 48 48" fill="none" xmlns="http://www.w3.org/2000/svg">
<path d="M40.2581 6H27.8555C26.8934 6 26.1135 6.787 26.1135 7.75781C26.1135 8.72863 26.8934 9.51562 27.8555 9.51562H35.729L9.48387 36V27.7266C9.48387 26.7557 8.70398 25.9688 7.74194 25.9688C6.77989 25.9688 6 26.7557 6 27.7266V40.2422C6.01251 41.2077 6.78512 41.9874 7.74194 42H20.1445C21.1066 42 21.8865 41.213 21.8865 40.2422C21.8865 39.2714 21.1066 38.4844 20.1445 38.4844H11.9458L38.5161 11.6719V20.2734C38.5161 21.2443 39.296 22.0312 40.2581 22.0312C41.2201 22.0312 42 21.2443 42 20.2734V7.75781C41.9875 6.79228 41.2149 6.01262 40.2581 6Z" fill="#0B1C3F"/>
</svg>
