<svg width="52" height="68" viewBox="0 0 52 68" fill="none" xmlns="http://www.w3.org/2000/svg">
<path d="M17.0779 52.5867C17.0779 52.5867 14.4797 54.0997 18.928 54.6097C24.317 55.2273 27.071 55.1395 33.0069 54.0118C33.0069 54.0118 34.5709 54.9922 36.7497 55.8422C23.4359 61.5457 6.62288 55.5078 17.0779 52.5867ZM15.4487 45.1435C15.4487 45.1435 12.536 47.2997 16.9844 47.7615C22.7417 48.3537 27.2864 48.4047 35.1545 46.8888C35.1545 46.8888 36.2425 47.991 37.951 48.5945C21.8605 53.3007 3.93121 48.9628 15.4487 45.1435ZM29.162 32.5125C32.443 36.2893 28.3007 39.6893 28.3007 39.6893C28.3007 39.6893 36.6279 35.3883 32.8029 30.005C29.23 24.9843 26.4902 22.491 41.3227 13.889C41.3227 13.8862 18.044 19.7002 29.162 32.5125ZM46.7684 58.0947C46.7684 58.0947 48.6922 59.6785 44.6519 60.9025C36.9679 63.2315 12.6692 63.9313 5.92305 60.996C3.49771 59.9392 8.04805 58.4743 9.47605 58.1683C10.9692 57.8453 11.822 57.9048 11.822 57.9048C9.12188 56.0037 -5.61995 61.6363 4.33355 63.2513C31.4769 67.6515 53.8092 61.268 46.7684 58.0947ZM18.3274 37.4283C18.3274 37.4283 5.96838 40.3637 13.9527 41.429C17.3215 41.8795 24.0422 41.7775 30.301 41.2533C35.418 40.8227 40.552 39.9018 40.552 39.9018C40.552 39.9018 38.7472 40.6725 37.441 41.565C24.8922 44.8658 0.647379 43.3302 7.62871 39.9557C13.5277 37.1053 18.3274 37.4283 18.3274 37.4283ZM40.4954 49.8213C53.2539 43.1913 47.3549 36.8192 43.238 37.6805C42.2322 37.8902 41.7789 38.0715 41.7789 38.0715C41.7789 38.0715 42.1529 37.485 42.8697 37.23C51.0155 34.3655 57.28 45.6762 40.2404 50.1557C40.2404 50.1528 40.4387 49.98 40.4954 49.8213ZM32.8029 0C32.8029 0 39.8692 7.06633 26.102 17.935C15.0634 26.6532 23.586 31.6257 26.0992 37.3037C19.6562 31.4868 14.9274 26.3727 18.0979 21.6098C22.7559 14.6143 35.656 11.2257 32.8029 0V0ZM19.5797 67.7847C31.8254 68.5695 50.6302 67.3512 51.075 61.557C51.075 61.557 50.2194 63.7528 40.9544 65.4982C30.505 67.4645 17.6105 67.235 9.96621 65.9742C9.96621 65.9713 11.533 67.269 19.5797 67.7847Z" fill="#474747"/>
</svg>
