<svg width="48" height="48" viewBox="0 0 48 48" fill="none" xmlns="http://www.w3.org/2000/svg">
<g clip-path="url(#clip0_674_2578)">
<path d="M35.988 4.57217C32.172 1.16417 27.048 -0.45983 21.912 0.11817C13.808 1.03417 7.18 7.56417 6.15 15.6442C5.402 21.5062 7.438 27.1642 11.736 31.1662C14.486 33.7242 16 36.9662 16 40.2982V40.6202C16 44.6902 19.31 48.0002 23.38 48.0002H24.618C28.688 48.0002 31.998 44.6902 31.998 40.6202V39.5222C31.998 36.5502 33.372 33.7102 35.862 31.5262C39.762 28.1102 41.998 23.1802 41.998 18.0002C41.998 12.8802 39.806 7.98617 35.986 4.57217H35.988ZM24.618 44.0002H23.38C21.516 44.0002 20 42.4842 20 40.6202V40.2982C20 40.1982 19.998 40.0982 19.996 40.0002H28V40.6202C28 42.4842 26.482 44.0002 24.62 44.0002H24.618ZM33.226 28.5182C30.872 30.5822 29.23 33.1982 28.474 36.0002H19.378C18.538 33.1382 16.862 30.4702 14.462 28.2382C11.12 25.1262 9.536 20.7202 10.12 16.1522C10.918 9.87617 16.068 4.80617 22.362 4.09417C22.918 4.03217 23.47 4.00017 24.018 4.00017C27.468 4.00017 30.724 5.23417 33.322 7.55617C36.294 10.2122 38 14.0182 38 18.0002C38 22.0262 36.26 25.8602 33.226 28.5182ZM32 24.0002C32 27.3082 29.308 30.0002 26 30.0002V32.0002C26 33.1042 25.106 34.0002 24 34.0002C22.894 34.0002 22 33.1042 22 32.0002V30.0002H21.464C19.33 30.0002 17.338 28.8522 16.268 27.0022C15.714 26.0462 16.042 24.8242 16.996 24.2702C17.954 23.7142 19.176 24.0442 19.728 25.0002C20.086 25.6162 20.75 26.0002 21.462 26.0002H25.998C27.102 26.0002 27.998 25.1022 27.998 24.0002C27.998 23.2442 27.456 22.6042 26.71 22.4802L20.628 21.4662C17.944 21.0202 15.998 18.7202 15.998 16.0002C15.998 12.6922 18.69 10.0002 21.998 10.0002V8.00017C21.998 6.89617 22.892 6.00017 23.998 6.00017C25.104 6.00017 25.998 6.89617 25.998 8.00017V10.0002H26.534C28.668 10.0002 30.66 11.1502 31.73 13.0002C32.284 13.9562 31.956 15.1782 31.002 15.7322C30.042 16.2842 28.82 15.9582 28.27 15.0022C27.912 14.3842 27.248 14.0022 26.536 14.0022H22C20.896 14.0022 20 14.9002 20 16.0022C20 16.7582 20.542 17.3982 21.288 17.5222L27.37 18.5362C30.054 18.9822 32 21.2822 32 24.0022V24.0002Z" fill="black"/>
</g>
<defs>
<clipPath id="clip0_674_2578">
<rect width="48" height="48" fill="white"/>
</clipPath>
</defs>
</svg>
