<svg width="116" height="44" viewBox="0 0 116 44" fill="none" xmlns="http://www.w3.org/2000/svg">
<path d="M32.4236 23.6846C32.3755 18.8479 36.3678 16.5281 36.5463 16.4109C34.3025 13.1303 30.8069 12.6802 29.5628 12.6289C26.5903 12.327 23.7599 14.3798 22.2519 14.3798C20.747 14.3798 18.4171 12.6732 15.9522 12.7166C12.7096 12.7648 9.72081 14.6026 8.05217 17.5052C4.68463 23.347 7.19069 32.0045 10.4721 36.7458C12.0763 39.0632 13.9894 41.671 16.4994 41.5755C18.9185 41.4801 19.8312 40.0109 22.7556 40.0109C25.68 40.0109 26.5011 41.5755 29.0599 41.5266C31.6614 41.4793 33.3107 39.1649 34.9017 36.8381C36.7434 34.1458 37.5017 31.5389 37.5467 31.4069C37.49 31.3805 32.4756 29.4597 32.4236 23.6846Z" fill="#474747"/>
<path d="M27.6155 9.49112C28.9466 7.87526 29.8484 5.62997 29.6031 3.39478C27.6823 3.47239 25.3571 4.67148 23.9779 6.28578C22.7423 7.71848 21.662 9.99947 21.9515 12.1943C24.0943 12.3604 26.2798 11.1039 27.6155 9.49112Z" fill="#474747"/>
<path d="M54.2452 21.7332V22.3097C54.2452 22.9948 54.1595 23.6089 53.9882 24.1519C53.817 24.695 53.5705 25.1566 53.2488 25.5368C52.9272 25.9169 52.5407 26.2073 52.0896 26.4078C51.6426 26.6083 51.1413 26.7086 50.5857 26.7086C50.0468 26.7086 49.5517 26.6083 49.1005 26.4078C48.6536 26.2073 48.265 25.9169 47.935 25.5368C47.6092 25.1566 47.3564 24.695 47.1768 24.1519C46.9972 23.6089 46.9073 22.9948 46.9073 22.3097V21.7332C46.9073 21.048 46.9951 20.436 47.1705 19.8971C47.3502 19.3541 47.6029 18.8924 47.9288 18.5123C48.2546 18.128 48.641 17.8355 49.088 17.635C49.5392 17.4345 50.0342 17.3342 50.5731 17.3342C51.1287 17.3342 51.63 17.4345 52.077 17.635C52.5282 17.8355 52.9146 18.128 53.2363 18.5123C53.5621 18.8924 53.8107 19.3541 53.982 19.8971C54.1574 20.436 54.2452 21.048 54.2452 21.7332ZM53.0483 22.3097V21.7206C53.0483 21.1775 52.9919 20.6971 52.8791 20.2794C52.7705 19.8616 52.6097 19.5107 52.3966 19.2266C52.1836 18.9426 51.9225 18.7274 51.6133 18.5812C51.3084 18.435 50.9616 18.3619 50.5731 18.3619C50.1971 18.3619 49.8567 18.435 49.5517 18.5812C49.2509 18.7274 48.9919 18.9426 48.7747 19.2266C48.5616 19.5107 48.3966 19.8616 48.2797 20.2794C48.1627 20.6971 48.1042 21.1775 48.1042 21.7206V22.3097C48.1042 22.8569 48.1627 23.3415 48.2797 23.7634C48.3966 24.1812 48.5637 24.5342 48.781 24.8224C49.0024 25.1065 49.2635 25.3216 49.5642 25.4679C49.8692 25.6141 50.2097 25.6872 50.5857 25.6872C50.9783 25.6872 51.3272 25.6141 51.6321 25.4679C51.9371 25.3216 52.194 25.1065 52.4029 24.8224C52.6159 24.5342 52.7768 24.1812 52.8854 23.7634C52.994 23.3415 53.0483 22.8569 53.0483 22.3097Z" fill="#474747"/>
<path d="M56.3877 16.9583H57.5533V25.2673L57.453 26.5833H56.3877V16.9583ZM62.1339 23.1368V23.2684C62.1339 23.7613 62.0754 24.2188 61.9584 24.6407C61.8415 25.0585 61.6702 25.4219 61.4446 25.731C61.219 26.0402 60.9433 26.2804 60.6175 26.4517C60.2916 26.6229 59.9177 26.7086 59.4958 26.7086C59.0655 26.7086 58.6874 26.6355 58.3616 26.4893C58.0399 26.3389 57.7684 26.1237 57.547 25.8438C57.3256 25.5639 57.148 25.2256 57.0144 24.8287C56.8848 24.4318 56.795 23.9848 56.7449 23.4877V22.9112C56.795 22.4099 56.8848 21.9608 57.0144 21.564C57.148 21.1671 57.3256 20.8287 57.547 20.5488C57.7684 20.2648 58.0399 20.0496 58.3616 19.9034C58.6833 19.753 59.0572 19.6778 59.4833 19.6778C59.9094 19.6778 60.2874 19.7614 60.6175 19.9285C60.9475 20.0914 61.2232 20.3253 61.4446 20.6303C61.6702 20.9352 61.8415 21.3008 61.9584 21.7269C62.0754 22.1488 62.1339 22.6188 62.1339 23.1368ZM60.9684 23.2684V23.1368C60.9684 22.7984 60.937 22.4809 60.8744 22.1843C60.8117 21.8835 60.7115 21.6204 60.5736 21.3948C60.4357 21.165 60.254 20.9854 60.0284 20.8559C59.8028 20.7222 59.525 20.6554 59.195 20.6554C58.9026 20.6554 58.6478 20.7055 58.4305 20.8057C58.2175 20.906 58.0358 21.0418 57.8854 21.2131C57.735 21.3802 57.6117 21.5723 57.5157 21.7896C57.4237 22.0026 57.3548 22.224 57.3089 22.4538V23.9639C57.3757 24.2564 57.4843 24.5384 57.6347 24.8099C57.7893 25.0773 57.994 25.2966 58.2488 25.4679C58.5078 25.6391 58.8274 25.7248 59.2075 25.7248C59.5209 25.7248 59.7882 25.6621 60.0096 25.5368C60.2352 25.4073 60.4169 25.2297 60.5548 25.0042C60.6968 24.7786 60.8013 24.5175 60.8681 24.2209C60.935 23.9243 60.9684 23.6068 60.9684 23.2684Z" fill="#474747"/>
<path d="M64.1449 19.8031H65.3104V27.3916C65.3104 27.8052 65.2436 28.1561 65.1099 28.4443C64.9804 28.7326 64.784 28.9498 64.5208 29.096C64.2618 29.2464 63.9339 29.3216 63.537 29.3216C63.4326 29.3216 63.3115 29.3112 63.1736 29.2903C63.0316 29.2694 62.9125 29.2443 62.8164 29.2151L62.8227 28.2814C62.9021 28.2981 62.9919 28.3107 63.0921 28.319C63.1924 28.3315 63.2801 28.3378 63.3553 28.3378C63.5266 28.3378 63.6707 28.3065 63.7877 28.2438C63.9047 28.1812 63.9924 28.0809 64.0509 27.943C64.1135 27.8052 64.1449 27.6214 64.1449 27.3916V19.8031ZM64.0258 18.0047C64.0258 17.8167 64.0843 17.658 64.2013 17.5285C64.3182 17.399 64.4874 17.3342 64.7088 17.3342C64.9344 17.3342 65.1057 17.399 65.2227 17.5285C65.3396 17.658 65.3981 17.8167 65.3981 18.0047C65.3981 18.1844 65.3396 18.3389 65.2227 18.4684C65.1057 18.5937 64.9344 18.6564 64.7088 18.6564C64.4874 18.6564 64.3182 18.5937 64.2013 18.4684C64.0843 18.3389 64.0258 18.1844 64.0258 18.0047Z" fill="#474747"/>
<path d="M70.5109 26.7086C70.0388 26.7086 69.6107 26.6292 69.2263 26.4705C68.8462 26.3075 68.5182 26.0799 68.2425 25.7874C67.971 25.495 67.7621 25.1483 67.6159 24.7472C67.4697 24.3462 67.3966 23.9076 67.3966 23.4313V23.1681C67.3966 22.6167 67.478 22.1258 67.641 21.6956C67.8039 21.2611 68.0253 20.8935 68.3052 20.5927C68.5851 20.2919 68.9026 20.0642 69.2577 19.9097C69.6127 19.7551 69.9804 19.6778 70.3605 19.6778C70.8451 19.6778 71.2629 19.7614 71.6138 19.9285C71.9689 20.0956 72.2592 20.3295 72.4848 20.6303C72.7104 20.9269 72.8775 21.2778 72.9861 21.683C73.0947 22.0841 73.149 22.5227 73.149 22.9989V23.519H68.0859V22.5728H71.9897V22.4851C71.973 22.1843 71.9104 21.8919 71.8018 21.6078C71.6973 21.3238 71.5302 21.0898 71.3005 20.906C71.0707 20.7222 70.7574 20.6303 70.3605 20.6303C70.0973 20.6303 69.855 20.6867 69.6336 20.7995C69.4122 20.9081 69.2221 21.071 69.0634 21.2882C68.9047 21.5055 68.7814 21.7708 68.6937 22.0841C68.606 22.3974 68.5621 22.7587 68.5621 23.1681V23.4313C68.5621 23.753 68.606 24.0559 68.6937 24.3399C68.7856 24.6198 68.9172 24.8663 69.0885 25.0793C69.2639 25.2924 69.4749 25.4595 69.7214 25.5806C69.972 25.7018 70.2561 25.7624 70.5736 25.7624C70.983 25.7624 71.3297 25.6788 71.6138 25.5117C71.8978 25.3446 72.1464 25.1211 72.3595 24.8412L73.0613 25.3989C72.9151 25.6203 72.7292 25.8313 72.5036 26.0318C72.278 26.2323 72.0002 26.3953 71.6702 26.5206C71.3443 26.6459 70.9579 26.7086 70.5109 26.7086Z" fill="#474747"/>
<path d="M77.7292 25.7561C78.0049 25.7561 78.2597 25.6997 78.4936 25.5869C78.7276 25.4741 78.9198 25.3196 79.0701 25.1232C79.2205 24.9227 79.3062 24.695 79.3271 24.4402H80.4299C80.409 24.8412 80.2733 25.2151 80.0226 25.5618C79.7761 25.9044 79.4524 26.1822 79.0513 26.3953C78.6503 26.6041 78.2096 26.7086 77.7292 26.7086C77.2195 26.7086 76.7746 26.6188 76.3944 26.4391C76.0185 26.2595 75.7052 26.013 75.4545 25.6997C75.208 25.3864 75.0221 25.0271 74.8968 24.6219C74.7757 24.2125 74.7151 23.7801 74.7151 23.3248V23.0616C74.7151 22.6063 74.7757 22.176 74.8968 21.7708C75.0221 21.3614 75.208 21 75.4545 20.6867C75.7052 20.3734 76.0185 20.1269 76.3944 19.9473C76.7746 19.7676 77.2195 19.6778 77.7292 19.6778C78.2597 19.6778 78.7234 19.7864 79.1203 20.0037C79.5171 20.2167 79.8284 20.5091 80.0539 20.8809C80.2837 21.2486 80.409 21.6663 80.4299 22.1342H79.3271C79.3062 21.8543 79.2268 21.6016 79.0889 21.376C78.9553 21.1504 78.7714 20.9708 78.5375 20.8371C78.3077 20.6992 78.0383 20.6303 77.7292 20.6303C77.3741 20.6303 77.0754 20.7013 76.8331 20.8433C76.595 20.9812 76.4049 21.1692 76.2628 21.4073C76.125 21.6412 76.0247 21.9023 75.9621 22.1906C75.9036 22.4747 75.8743 22.765 75.8743 23.0616V23.3248C75.8743 23.6214 75.9036 23.9138 75.9621 24.2021C76.0206 24.4903 76.1187 24.7514 76.2566 24.9854C76.3986 25.2193 76.5887 25.4073 76.8268 25.5493C77.0691 25.6872 77.3699 25.7561 77.7292 25.7561Z" fill="#474747"/>
<path d="M85.0853 19.8031V20.693H81.4195V19.8031H85.0853ZM82.6602 18.1551H83.8195V24.9039C83.8195 25.1337 83.855 25.307 83.926 25.424C83.997 25.541 84.0889 25.6182 84.2017 25.6558C84.3145 25.6934 84.4357 25.7122 84.5652 25.7122C84.6612 25.7122 84.7615 25.7039 84.8659 25.6872C84.9746 25.6663 85.056 25.6496 85.1103 25.637L85.1166 26.5833C85.0247 26.6125 84.9035 26.6396 84.7532 26.6647C84.6069 26.694 84.4294 26.7086 84.2205 26.7086C83.9364 26.7086 83.6754 26.6522 83.4372 26.5394C83.1991 26.4266 83.009 26.2386 82.867 25.9754C82.7291 25.7081 82.6602 25.3488 82.6602 24.8976V18.1551Z" fill="#474747"/>
<path d="M88.2179 19.8031V26.5833H87.0524V19.8031H88.2179ZM86.9646 18.0047C86.9646 17.8167 87.021 17.658 87.1338 17.5285C87.2508 17.399 87.4221 17.3342 87.6477 17.3342C87.8691 17.3342 88.0383 17.399 88.1552 17.5285C88.2764 17.658 88.337 17.8167 88.337 18.0047C88.337 18.1844 88.2764 18.3389 88.1552 18.4684C88.0383 18.5937 87.8691 18.6564 87.6477 18.6564C87.4221 18.6564 87.2508 18.5937 87.1338 18.4684C87.021 18.3389 86.9646 18.1844 86.9646 18.0047Z" fill="#474747"/>
<path d="M92.6539 25.5368L94.5087 19.8031H95.6931L93.2555 26.5833H92.4785L92.6539 25.5368ZM91.1062 19.8031L93.0174 25.5681L93.149 26.5833H92.3719L89.9156 19.8031H91.1062Z" fill="#474747"/>
<path d="M100.048 26.7086C99.5756 26.7086 99.1474 26.6292 98.763 26.4705C98.3829 26.3075 98.055 26.0799 97.7792 25.7874C97.5077 25.495 97.2988 25.1483 97.1526 24.7472C97.0064 24.3462 96.9333 23.9076 96.9333 23.4313V23.1681C96.9333 22.6167 97.0147 22.1258 97.1777 21.6956C97.3406 21.2611 97.562 20.8935 97.8419 20.5927C98.1218 20.2919 98.4393 20.0642 98.7944 19.9097C99.1495 19.7551 99.5171 19.6778 99.8972 19.6778C100.382 19.6778 100.8 19.7614 101.15 19.9285C101.506 20.0956 101.796 20.3295 102.022 20.6303C102.247 20.9269 102.414 21.2778 102.523 21.683C102.631 22.0841 102.686 22.5227 102.686 22.9989V23.519H97.6226V22.5728H101.526V22.4851C101.51 22.1843 101.447 21.8919 101.338 21.6078C101.234 21.3238 101.067 21.0898 100.837 20.906C100.607 20.7222 100.294 20.6303 99.8972 20.6303C99.6341 20.6303 99.3918 20.6867 99.1703 20.7995C98.9489 20.9081 98.7589 21.071 98.6001 21.2882C98.4414 21.5055 98.3181 21.7708 98.2304 22.0841C98.1427 22.3974 98.0988 22.7587 98.0988 23.1681V23.4313C98.0988 23.753 98.1427 24.0559 98.2304 24.3399C98.3223 24.6198 98.4539 24.8663 98.6252 25.0793C98.8006 25.2924 99.0116 25.4595 99.2581 25.5806C99.5087 25.7018 99.7928 25.7624 100.11 25.7624C100.52 25.7624 100.866 25.6788 101.15 25.5117C101.435 25.3446 101.683 25.1211 101.896 24.8412L102.598 25.3989C102.452 25.6203 102.266 25.8313 102.04 26.0318C101.815 26.2323 101.537 26.3953 101.207 26.5206C100.881 26.6459 100.495 26.7086 100.048 26.7086Z" fill="#474747"/>
<path d="M106.965 22.2282V23.1807H103.907V22.2282H106.965Z" fill="#474747"/>
<path d="M114.296 23.682H115.499C115.437 24.2585 115.272 24.7744 115.004 25.2297C114.737 25.6851 114.359 26.0464 113.87 26.3138C113.381 26.577 112.771 26.7086 112.04 26.7086C111.506 26.7086 111.019 26.6083 110.58 26.4078C110.146 26.2073 109.772 25.9232 109.459 25.5556C109.145 25.1838 108.903 24.7389 108.732 24.2209C108.565 23.6987 108.481 23.118 108.481 22.4788V21.5702C108.481 20.9311 108.565 20.3525 108.732 19.8345C108.903 19.3123 109.147 18.8653 109.465 18.4935C109.787 18.1217 110.173 17.8355 110.624 17.635C111.075 17.4345 111.583 17.3342 112.147 17.3342C112.836 17.3342 113.419 17.4637 113.895 17.7227C114.371 17.9817 114.741 18.341 115.004 18.8005C115.272 19.2559 115.437 19.7843 115.499 20.3859H114.296C114.238 19.9598 114.129 19.5943 113.97 19.2893C113.812 18.9802 113.586 18.7421 113.294 18.575C113.001 18.4079 112.619 18.3243 112.147 18.3243C111.742 18.3243 111.384 18.4016 111.075 18.5562C110.77 18.7107 110.513 18.93 110.305 19.2141C110.1 19.4982 109.945 19.8386 109.841 20.2355C109.736 20.6324 109.684 21.0731 109.684 21.5577V22.4788C109.684 22.9258 109.73 23.3457 109.822 23.7384C109.918 24.131 110.062 24.4757 110.254 24.7723C110.447 25.0689 110.691 25.3028 110.988 25.4741C111.284 25.6412 111.635 25.7248 112.04 25.7248C112.554 25.7248 112.964 25.6433 113.268 25.4804C113.573 25.3175 113.803 25.0835 113.958 24.7786C114.117 24.4736 114.229 24.1081 114.296 23.682Z" fill="#474747"/>
</svg>
