<svg width="48" height="48" viewBox="0 0 48 48" fill="none" xmlns="http://www.w3.org/2000/svg">
<g clip-path="url(#clip0_674_2558)">
<path d="M34.23 16.1001C33.6566 16.2525 33.1412 16.5714 32.7491 17.0166C32.3569 17.4619 32.1056 18.0134 32.0269 18.6014C31.9481 19.1895 32.0456 19.7877 32.3068 20.3204C32.568 20.8531 32.9813 21.2964 33.4945 21.5942C34.0076 21.892 34.5975 22.031 35.1896 21.9935C35.7818 21.9561 36.3495 21.7439 36.821 21.3839C37.2926 21.0238 37.6468 20.532 37.8388 19.9706C38.0309 19.4093 38.0522 18.8036 37.9 18.2301C37.7989 17.8492 37.6238 17.492 37.3847 17.1788C37.1455 16.8656 36.847 16.6026 36.5062 16.4048C36.1654 16.2071 35.789 16.0783 35.3984 16.026C35.0079 15.9738 34.6108 15.9989 34.23 16.1001Z" fill="black"/>
<path d="M24.23 10.1001C23.6566 10.2525 23.1412 10.5714 22.7491 11.0166C22.3569 11.4619 22.1056 12.0134 22.0269 12.6014C21.9481 13.1895 22.0455 13.7877 22.3068 14.3204C22.568 14.8531 22.9813 15.2964 23.4944 15.5942C24.0076 15.892 24.5975 16.031 25.1896 15.9935C25.7818 15.9561 26.3495 15.7439 26.821 15.3839C27.2926 15.0238 27.6468 14.532 27.8388 13.9706C28.0309 13.4093 28.0522 12.8036 27.9 12.2301C27.7989 11.8492 27.6238 11.492 27.3847 11.1788C27.1455 10.8656 26.847 10.6026 26.5062 10.4048C26.1654 10.2071 25.789 10.0783 25.3984 10.026C25.0079 9.97375 24.6108 9.99892 24.23 10.1001Z" fill="black"/>
<path d="M14.23 16.1001C13.6566 16.2525 13.1412 16.5714 12.7491 17.0166C12.3569 17.4619 12.1056 18.0134 12.0269 18.6014C11.9481 19.1895 12.0455 19.7877 12.3068 20.3204C12.568 20.8531 12.9813 21.2964 13.4944 21.5942C14.0076 21.892 14.5975 22.031 15.1896 21.9935C15.7818 21.9561 16.3495 21.7439 16.821 21.3839C17.2926 21.0238 17.6468 20.532 17.8388 19.9706C18.0309 19.4093 18.0522 18.8036 17.9 18.2301C17.7989 17.8492 17.6238 17.492 17.3847 17.1788C17.1455 16.8656 16.847 16.6026 16.5062 16.4048C16.1654 16.2071 15.789 16.0783 15.3984 16.026C15.0079 15.9738 14.6108 15.9989 14.23 16.1001Z" fill="black"/>
<path d="M14.23 28.1001C13.6566 28.2525 13.1412 28.5714 12.7491 29.0166C12.3569 29.4619 12.1056 30.0134 12.0269 30.6014C11.9481 31.1895 12.0455 31.7877 12.3068 32.3204C12.568 32.8531 12.9813 33.2964 13.4944 33.5942C14.0076 33.892 14.5975 34.031 15.1896 33.9935C15.7818 33.9561 16.3495 33.7439 16.821 33.3839C17.2926 33.0238 17.6468 32.532 17.8388 31.9706C18.0309 31.4093 18.0522 30.8036 17.9 30.2301C17.7989 29.8492 17.6238 29.492 17.3847 29.1788C17.1455 28.8656 16.847 28.6026 16.5062 28.4048C16.1654 28.2071 15.789 28.0783 15.3984 28.026C15.0079 27.9738 14.6108 27.9989 14.23 28.1001Z" fill="black"/>
<path d="M25 0.0140077C21.78 -0.0979558 18.5704 0.439588 15.5625 1.59459C12.5547 2.7496 9.81023 4.49841 7.49273 6.73678C5.17523 8.97514 3.33215 11.6572 2.07339 14.6231C0.81462 17.589 0.165933 20.778 0.165999 24C0.17341 30.3629 2.70435 36.4631 7.20362 40.9624C11.7029 45.4617 17.8031 47.9926 24.166 48C24.842 48 25.506 47.956 26.166 47.9C26.6668 47.8578 27.1333 47.6286 27.4728 47.258C27.8123 46.8874 27.9998 46.4026 27.998 45.9L27.934 38.724C27.9178 37.306 28.3246 35.9152 29.1025 34.7295C29.8804 33.5437 30.994 32.6167 32.3012 32.0667C33.6083 31.5168 35.0498 31.369 36.4414 31.6421C37.833 31.9152 39.1116 32.5968 40.114 33.6L40.314 33.8C40.768 34.2579 41.3305 34.5936 41.9491 34.7757C42.5676 34.9579 43.2223 34.9807 43.852 34.842C44.4716 34.712 45.0485 34.4282 45.5298 34.0169C46.011 33.6055 46.3811 33.0798 46.606 32.488C47.7102 29.5886 48.2381 26.5016 48.16 23.4C47.9349 17.308 45.4292 11.523 41.1396 7.19147C36.85 2.85997 31.0895 0.298233 25 0.0140077ZM42.964 30.814L42.936 30.786C41.3727 29.2253 39.3805 28.1649 37.2127 27.7397C35.045 27.3145 32.7998 27.5437 30.7628 28.3982C28.7257 29.2527 26.9889 30.6938 25.7732 32.5383C24.5576 34.3827 23.918 36.5471 23.936 38.756L23.984 44C18.6797 43.9761 13.6021 41.8461 9.86822 38.0785C6.13437 34.3109 4.05013 29.2143 4.074 23.91C4.09787 18.6057 6.2279 13.5281 9.9955 9.79423C13.7631 6.06038 18.8597 3.97614 24.164 4.00001C24.398 4.00001 24.634 4.00001 24.87 4.01201C29.9428 4.25027 34.7409 6.38549 38.3137 9.99454C41.8864 13.6036 43.973 18.4231 44.16 23.498C44.226 25.9852 43.8223 28.4625 42.97 30.8L42.964 30.814Z" fill="black"/>
</g>
<defs>
<clipPath id="clip0_674_2558">
<rect width="48" height="48" fill="white"/>
</clipPath>
</defs>
</svg>
