<svg width="48" height="48" viewBox="0 0 48 48" fill="none" xmlns="http://www.w3.org/2000/svg">
<path fill-rule="evenodd" clip-rule="evenodd" d="M26.92 5.61998L38.92 12.28C40.8272 13.3424 42.0067 15.3569 42 17.54V30.46C42.0067 32.6431 40.8272 34.6575 38.92 35.72L26.92 42.38C25.1047 43.3913 22.8954 43.3913 21.08 42.38L9.08003 35.72C7.17289 34.6575 5.99331 32.6431 6.00003 30.46V17.54C5.99331 15.3569 7.17289 13.3424 9.08003 12.28L21.08 5.61998C22.8954 4.60869 25.1047 4.60869 26.92 5.61998ZM37.38 33.1C38.3276 32.5577 38.9144 31.5517 38.92 30.46V17.54C38.9144 16.4483 38.3276 15.4423 37.38 14.9L25.38 8.23998C24.4724 7.73434 23.3677 7.73434 22.46 8.23998L10.46 14.9C9.51252 15.4423 8.92568 16.4483 8.92004 17.54V30.46C8.92568 31.5517 9.51252 32.5577 10.46 33.1L22.46 39.76C23.3677 40.2656 24.4724 40.2656 25.38 39.76L37.38 33.1Z" fill="#0B1C3F"/>
<path d="M33.3604 16.4L24.9004 21.1C24.3435 21.4215 23.6574 21.4215 23.1004 21.1L14.6404 16.4C14.1714 16.1255 13.5906 16.1262 13.1222 16.4017C12.6538 16.6773 12.3711 17.1846 12.3832 17.7279C12.3953 18.2712 12.7003 18.7655 13.1804 19.02L21.6404 23.72C21.9211 23.8689 22.2159 23.9895 22.5204 24.08V33C22.5204 33.8284 23.192 34.5 24.0204 34.5C24.8489 34.5 25.5204 33.8284 25.5204 33V24C25.8128 23.9198 26.0947 23.8057 26.3604 23.66L34.8204 18.96C35.5248 18.5478 35.7704 17.6481 35.3731 16.9352C34.9758 16.2223 34.0815 15.9578 33.3604 16.34V16.4Z" fill="#0B1C3F"/>
</svg>
