<svg width="48" height="48" viewBox="0 0 48 48" fill="none" xmlns="http://www.w3.org/2000/svg">
<path d="M26.9252 27.804C26.9252 25.9704 25.4388 24.484 23.6052 24.484C21.7716 24.484 20.2852 25.9704 20.2852 27.804C20.2824 28.5814 20.5593 29.3338 21.0652 29.924C21.5749 30.4552 21.7516 31.2235 21.5252 31.924L21.1052 33.164C20.9427 33.7216 21.0501 34.3231 21.3955 34.7901C21.7408 35.2571 22.2844 35.536 22.8652 35.544H24.3452C24.9452 35.5438 25.5082 35.2542 25.8573 34.7663C26.2064 34.2783 26.2987 33.6519 26.1052 33.084L25.6052 31.844C25.3787 31.1435 25.5554 30.3752 26.0652 29.844C26.5825 29.2861 26.8869 28.5639 26.9252 27.804V27.804Z" fill="#0B1C3F"/>
<path fill-rule="evenodd" clip-rule="evenodd" d="M33.1053 16.244V10.004C33.1064 8.37388 32.4441 6.81344 31.2709 5.68168C30.0976 4.54992 28.5144 3.94427 26.8853 4.00404H20.3253C18.6962 3.94427 17.113 4.54992 15.9397 5.68168C14.7664 6.81344 14.1042 8.37388 14.1053 10.004V16.244C9.96233 17.7027 7.44273 21.902 8.1053 26.244L10.0053 37.784C10.9424 42.3809 15.035 45.6483 19.7253 45.544H27.4853C32.2091 45.6626 36.331 42.36 37.2453 37.724L39.1453 26.184C39.7719 21.8519 37.2391 17.6836 33.1053 16.244ZM17.1053 10.004C17.181 8.2993 18.6202 6.9763 20.3253 7.04404H26.8853C28.5904 6.9763 30.0296 8.2993 30.1053 10.004V15.544H29.3853H17.8253H17.1053V10.004ZM33.6053 37.124L35.6053 25.544C35.8038 24.0459 35.3276 22.5369 34.3053 21.424C33.062 20.0142 31.2649 19.2178 29.3853 19.244H17.8253C15.9521 19.2077 14.1559 19.989 12.9053 21.384C11.9073 22.5237 11.4676 24.048 11.7053 25.544L13.6053 37.124C14.2254 39.9767 16.8087 41.969 19.7253 41.844H27.4853C30.4019 41.969 32.9852 39.9767 33.6053 37.124Z" fill="#0B1C3F"/>
</svg>
