<svg width="62" height="54" viewBox="0 0 62 54" fill="none" xmlns="http://www.w3.org/2000/svg">
<path d="M38.1094 0.199951C64.9672 18.1712 56.2577 37.9195 56.2577 37.9195C56.2577 37.9195 63.8865 46.3847 60.82 53.8002C60.82 53.8002 57.6551 48.6199 52.4013 48.6199C47.3221 48.6199 44.3175 53.8002 34.065 53.8002C11.2623 53.8002 0.453247 35.0635 0.453247 35.0635C21.0027 48.387 35.0427 38.9452 35.0427 38.9452C25.7645 33.6698 6.08516 8.40378 6.08516 8.40378C23.2407 22.7657 30.6439 26.5365 30.6439 26.5365C26.1924 22.9534 13.7863 5.39066 13.7863 5.39066C23.7139 15.2647 43.4472 29.0333 43.4472 29.0333C49.1058 13.818 38.1094 0.199951 38.1094 0.199951Z" fill="#474747"/>
</svg>
