<svg width="68" height="68" viewBox="0 0 68 68" fill="none" xmlns="http://www.w3.org/2000/svg">
<path d="M52.1333 48.9033C51.5667 48.6199 50.4333 48.3366 49.5833 47.7699C48.7333 51.1699 47.8833 55.1366 47.0333 59.3866L64.8833 56.5533L58.9333 16.6033L58.65 16.8866C57.5167 18.0199 56.1 21.7033 53.2667 32.4699H53.55L54.4 37.0033L52.1333 37.2866C51.85 38.7033 51.5667 40.1199 51 41.8199C55.8167 44.3699 53.2667 50.6033 52.9833 50.6033C52.7 50.6033 52.7 50.6033 52.7 50.3199C52.7 50.0366 52.9833 49.1866 52.1333 48.9033Z" fill="#474747"/>
<path d="M64.3167 7.25344C64.0334 7.53677 63.4667 7.82011 62.3334 7.82011C61.2 7.82011 60.0667 6.97011 59.2167 6.12011C57.8 4.70344 56.1 4.13677 54.4 3.57011C52.7 3.00344 50.7167 3.00344 49.0167 3.00344C46.4667 2.72011 43.6334 2.72011 41.0834 3.57011C39.95 3.85344 39.1 4.13677 37.9667 4.70344C37.6834 4.98677 36.8334 5.27011 36.55 5.27011C36.2667 5.55344 36.2667 5.83677 36.55 5.83677C36.8334 5.83677 37.9667 5.55344 37.9667 5.55344C37.9667 5.55344 36.55 6.12011 36.55 6.68677C36.55 6.97011 36.8334 6.97011 36.8334 6.97011C36.8334 6.97011 37.6834 6.68677 38.25 6.68677C39.3834 6.68677 41.0834 6.12011 42.5 6.12011C44.2 6.12011 45.9 6.68677 47.6 8.38677C50.15 11.5034 49.8667 15.4701 49.8667 16.3201C49.3 22.2701 35.9834 58.5368 35.4167 61.0868C34.85 63.6368 34.85 65.0534 37.9667 65.9034C41.0834 66.7534 42.2167 65.9034 42.7834 64.7701C43.0667 62.7868 51.5667 18.0201 56.6667 14.0534C57.8 13.4868 58.3667 12.9201 59.2167 12.9201C60.6334 12.9201 61.4834 13.7701 61.7667 14.3368C62.3334 15.1868 64.3167 15.7534 65.1667 15.7534C65.7334 15.7534 66.5834 13.7701 67.15 12.0701C67.7167 10.3701 67.7167 8.38677 67.4334 8.10344C67.15 7.82011 64.8834 7.25344 64.3167 7.25344Z" fill="#474747"/>
<path d="M28.6167 17.7366C29.4667 17.17 30.6 17.17 31.1667 18.02L41.9333 30.4866C44.2 23.6866 46.1833 17.7366 46.1833 15.7533C46.4667 15.1866 46.4667 13.2033 45.6167 11.22L0 18.3033L7.36667 65.62L31.7333 61.6533C31.45 59.67 37.9667 42.67 39.1 39.5533L26.6333 41.5366L28.3333 36.4366L37.1167 35.02L39.3833 37.8533C39.3833 37.8533 39.95 36.4366 39.95 35.87L27.7667 20.8533C27.2 20.0033 27.2 18.87 28.05 18.3033L28.6167 17.7366ZM11.6167 39.27L19.2667 37.8533L17.2833 42.9533L12.1833 43.8033L11.6167 39.27ZM28.05 24.82L28.9 25.1033C30.0333 25.3866 30.3167 26.52 30.0333 27.6533L21.5333 50.32L16.4333 57.12L17 48.62L25.5 25.9533C25.7833 24.82 26.9167 24.5366 28.05 24.82Z" fill="#474747"/>
</svg>
